<?xml version="1.0" encoding="utf-8"?>
<!-- Generator: Adobe Illustrator 27.0.0, SVG Export Plug-In . SVG Version: 6.00 Build 0)  -->
<svg version="1.1" id="Capa_1" xmlns="http://www.w3.org/2000/svg" xmlns:xlink="http://www.w3.org/1999/xlink" x="0px" y="0px"
	 viewBox="0 0 120 120" style="enable-background:new 0 0 120 120;" xml:space="preserve">
<style type="text/css">
	.st0{fill:#FFFFFF;}
</style>
<g id="SVGRepo_iconCarrier">
	<g>
		<g>
			<path class="st0" d="M80.8,5.9c0.3,0,0.5,0,0.8,0c0.6,7.6-2.3,13.3-5.8,17.5c-3.5,4.1-8.2,8.1-15.9,7.5
				c-0.5-7.5,2.4-12.8,5.9-16.9C69,10.1,75.1,6.7,80.8,5.9z"/>
			<path class="st0" d="M104.1,85.3c0,0.1,0,0.1,0,0.2c-2.2,6.5-5.2,12.2-9,17.4c-3.4,4.7-7.6,11.1-15.2,11.1
				c-6.5,0-10.8-4.2-17.5-4.3c-7-0.1-10.9,3.5-17.3,4.4c-0.7,0-1.5,0-2.2,0c-4.7-0.7-8.5-4.4-11.3-7.8c-8.2-10-14.5-22.8-15.7-39.3
				c0-1.6,0-3.2,0-4.8c0.5-11.8,6.2-21.4,13.8-26c4-2.5,9.5-4.6,15.7-3.6c2.6,0.4,5.3,1.3,7.7,2.2c2.2,0.9,5,2.4,7.7,2.3
				c1.8-0.1,3.6-1,5.4-1.6c5.3-1.9,10.5-4.1,17.3-3.1c8.2,1.2,14.1,4.9,17.7,10.5c-7,4.4-12.5,11.1-11.5,22.5
				C90.5,75.7,96.6,81.7,104.1,85.3z"/>
		</g>
	</g>
</g>
</svg>
